
<svg viewBox="0 0 53 39" fill="none" xmlns="http://www.w3.org/2000/svg">
<path d="M36 17.7679C37.3333 18.5377 37.3333 20.4623 36 21.2321L12.75 34.6554C11.4167 35.4252 9.75 34.463 9.75 32.9234L9.75 6.07661C9.75 4.537 11.4167 3.57475 12.75 4.34455L36 17.7679Z" fill="#00FFFF"/>
<path d="M50 17.7679C51.3333 18.5377 51.3333 20.4623 50 21.2321L26.75 34.6554C25.4167 35.4252 23.75 34.463 23.75 32.9234L23.75 6.07661C23.75 4.537 25.4167 3.57475 26.75 4.34455L50 17.7679Z" fill="#2563EB"/>
<mask id="mask0_612_296" style="mask-type:alpha" maskUnits="userSpaceOnUse" x="9" y="4" width="28" height="31">
<path d="M36 17.7679C37.3333 18.5377 37.3333 20.4623 36 21.2321L12.75 34.6554C11.4167 35.4252 9.75 34.463 9.75 32.9234L9.75 6.07661C9.75 4.537 11.4167 3.57475 12.75 4.34455L36 17.7679Z" fill="#15EDE0"/>
</mask>
<g mask="url(#mask0_612_296)">
<path d="M50 17.7679C51.3333 18.5377 51.3333 20.4623 50 21.2321L26.75 34.6554C25.4167 35.4252 23.75 34.463 23.75 32.9234L23.75 6.07661C23.75 4.537 25.4167 3.57475 26.75 4.34455L50 17.7679Z" fill="white"/>
</g>
</svg>
