
<svg viewBox="0 0 40 41" fill="none" xmlns="http://www.w3.org/2000/svg">
<path d="M12.5 0L14.5791 2.71852L17.5842 1.08068L18.3779 4.40983L21.7893 4.13587L21.1603 7.5L24.3882 8.63729L22.4452 11.4547L24.9315 13.8066L22.0106 15.5902L23.3253 18.75L19.9314 19.1913L19.8473 22.6127L16.5674 21.6355L15.0989 24.7268L12.5 22.5L9.9011 24.7268L8.43263 21.6355L5.15268 22.6127L5.06855 19.1913L1.67468 18.75L2.98943 15.5902L0.0684767 13.8066L2.55478 11.4547L0.611794 8.63729L3.83975 7.5L3.21069 4.13587L6.62215 4.40983L7.41579 1.08068L10.4209 2.71852L12.5 0Z" fill="#00FFFF"/>
<path d="M25 11L27.4949 14.2622L31.101 12.2968L32.0534 16.2918L36.1472 15.963L35.3923 20L39.2658 21.3647L36.9343 24.7457L39.9178 27.5679L36.4127 29.7082L37.9904 33.5L33.9177 34.0296L33.8168 38.1353L29.8808 36.9625L28.1187 40.6722L25 38L21.8813 40.6722L20.1192 36.9625L16.1832 38.1353L16.0823 34.0296L12.0096 33.5L13.5873 29.7082L10.0822 27.5679L13.0657 24.7457L10.7342 21.3647L14.6077 20L13.8528 15.963L17.9466 16.2918L18.899 12.2968L22.5051 14.2622L25 11Z" fill="#2563EB"/>
<mask id="mask0_612_298" style="mask-type:alpha" maskUnits="userSpaceOnUse" x="0" y="0" width="25" height="25">
<path d="M12.5 0L14.5791 2.71852L17.5842 1.08068L18.3779 4.40983L21.7893 4.13587L21.1603 7.5L24.3882 8.63729L22.4452 11.4547L24.9315 13.8066L22.0106 15.5902L23.3253 18.75L19.9314 19.1913L19.8473 22.6127L16.5674 21.6355L15.0989 24.7268L12.5 22.5L9.9011 24.7268L8.43263 21.6355L5.15268 22.6127L5.06855 19.1913L1.67468 18.75L2.98943 15.5902L0.0684767 13.8066L2.55478 11.4547L0.611794 8.63729L3.83975 7.5L3.21069 4.13587L6.62215 4.40983L7.41579 1.08068L10.4209 2.71852L12.5 0Z" fill="black" fill-opacity="0.7"/>
</mask>
<g mask="url(#mask0_612_298)">
<path d="M25 11L27.4949 14.2622L31.101 12.2968L32.0534 16.2918L36.1472 15.963L35.3923 20L39.2658 21.3647L36.9343 24.7457L39.9178 27.5679L36.4127 29.7082L37.9904 33.5L33.9177 34.0296L33.8168 38.1353L29.8808 36.9625L28.1187 40.6722L25 38L21.8813 40.6722L20.1192 36.9625L16.1832 38.1353L16.0823 34.0296L12.0096 33.5L13.5873 29.7082L10.0822 27.5679L13.0657 24.7457L10.7342 21.3647L14.6077 20L13.8528 15.963L17.9466 16.2918L18.899 12.2968L22.5051 14.2622L25 11Z" fill="white"/>
</g>
<circle cx="25" cy="26" r="3" fill="white"/>
<circle cx="12" cy="13" r="3" fill="white"/>
</svg>
