<svg viewBox="0 0 246 70" fill="none" xmlns="http://www.w3.org/2000/svg">
<path d="M17.9242 31.9835L16.5357 31.3887L6.75586 41.1222L7.29918 42.5642L17.9242 31.9835Z" fill="#1E3A8A" fill-opacity="0.45"/>
<path d="M37.3579 40.317L35.9694 39.7222L14.2969 61.2922L14.8402 62.7342L37.3579 40.317Z" fill="#1E3A8A" fill-opacity="0.45"/>
<path d="M20.7026 33.173L19.3141 32.5781L7.83789 44.006L8.37518 45.448L20.7026 33.173Z" fill="#1E3A8A" fill-opacity="0.45"/>
<path d="M26.2557 35.5587L24.8672 34.9639L9.99219 49.7685L10.5295 51.2105L26.2557 35.5587Z" fill="#1E3A8A" fill-opacity="0.45"/>
<path d="M29.0323 36.7477L27.6438 36.1528L11.0664 52.6518L11.6037 54.0878L29.0323 36.7477Z" fill="#1E3A8A" fill-opacity="0.45"/>
<path d="M34.5813 39.1266L33.1928 38.5317L13.2227 58.4134L13.7599 59.8494L34.5813 39.1266Z" fill="#1E3A8A" fill-opacity="0.45"/>
<path d="M31.8087 37.9371L30.4203 37.3423L12.1465 55.5296L12.6838 56.9716L31.8087 37.9371Z" fill="#1E3A8A" fill-opacity="0.45"/>
<path d="M23.4792 34.3679L22.0907 33.7671L8.91211 46.8834L9.4494 48.3254L23.4792 34.3679Z" fill="#1E3A8A" fill-opacity="0.45"/>
<path d="M4.04545 26.0349L2.65696 25.4341L1.37109 26.7199L1.90838 28.1559L4.04545 26.0349Z" fill="#1E3A8A" fill-opacity="0.45"/>
<path d="M6.82191 27.2232L5.43341 26.6284L2.45117 29.5966L2.98846 31.0386L6.82191 27.2232Z" fill="#1E3A8A" fill-opacity="0.45"/>
<path d="M0.556641 24.5327L0.834339 25.2778L1.269 24.8391L0.556641 24.5327Z" fill="#1E3A8A" fill-opacity="0.45"/>
<path d="M12.3769 29.6036L10.9885 29.0088L4.60742 35.3596L5.14471 36.8016L12.3769 29.6036Z" fill="#1E3A8A" fill-opacity="0.45"/>
<path d="M9.60049 28.4137L8.212 27.8188L3.52734 32.4813L4.06463 33.9173L9.60049 28.4137Z" fill="#1E3A8A" fill-opacity="0.45"/>
<path d="M15.1536 30.7936L13.7651 30.1987L5.68164 38.2439L6.21893 39.686L15.1536 30.7936Z" fill="#1E3A8A" fill-opacity="0.45"/>
<path d="M65.3327 55.9631V53.9863L49.6367 69.6141H51.6229L65.3327 55.9631Z" fill="#1E3A8A" fill-opacity="0.45"/>
<path d="M59.5664 49.8404L58.1779 49.2456L37.7188 69.614H39.7049L59.5664 49.8404Z" fill="#1E3A8A" fill-opacity="0.45"/>
<path d="M65.3331 59.9157V57.939L53.6094 69.6132H55.5955L65.3331 59.9157Z" fill="#1E3A8A" fill-opacity="0.45"/>
<path d="M62.3437 51.0359L60.9552 50.4351L41.6914 69.6138H43.6776L62.3437 51.0359Z" fill="#1E3A8A" fill-opacity="0.45"/>
<path d="M65.1211 52.2257L63.7326 51.6309L45.6641 69.6139H47.6502L65.1211 52.2257Z" fill="#1E3A8A" fill-opacity="0.45"/>
<path d="M65.332 67.8225V65.8457L61.5469 69.613H63.5391L65.332 67.8225Z" fill="#1E3A8A" fill-opacity="0.45"/>
<path d="M65.3334 63.8698V61.8931L57.582 69.6138H59.5682L65.3334 63.8698Z" fill="#1E3A8A" fill-opacity="0.45"/>
<path d="M51.2363 46.2711L49.8538 45.6763L25.8027 69.6136H27.7889L51.2363 46.2711Z" fill="#1E3A8A" fill-opacity="0.45"/>
<path d="M56.791 48.65L55.4025 48.0552L33.748 69.6132H35.7342L56.791 48.65Z" fill="#1E3A8A" fill-opacity="0.45"/>
<path d="M45.6896 43.8917L44.3011 43.2969L17.8594 69.6135H19.8455L45.6896 43.8917Z" fill="#1E3A8A" fill-opacity="0.45"/>
<path d="M42.911 42.6959L41.5225 42.1011L16.4512 67.0538L16.9885 68.4958L42.911 42.6959Z" fill="#1E3A8A" fill-opacity="0.45"/>
<path d="M48.465 45.0807L47.0765 44.4858L21.8301 69.6128H23.8162L48.465 45.0807Z" fill="#1E3A8A" fill-opacity="0.45"/>
<path d="M54.0136 47.4596L52.6251 46.8647L29.7754 69.6124H31.7615L54.0136 47.4596Z" fill="#1E3A8A" fill-opacity="0.45"/>
<path d="M40.1344 41.5065L38.7459 40.9116L15.377 64.176L15.9142 65.612L40.1344 41.5065Z" fill="#1E3A8A" fill-opacity="0.45"/>
<path d="M35.5824 11.9395L32.3043 13.2252L25.2773 20.219L26.7021 20.7778L35.5824 11.9395Z" fill="#1E3A8A" fill-opacity="0.45"/>
<path d="M39.7058 11.7883V10.3223L38.8606 10.6527L28.127 21.3356L29.5517 21.8944L39.7058 11.7883Z" fill="#1E3A8A" fill-opacity="0.45"/>
<path d="M19.8691 18.0981L21.0041 18.5427L22.4771 17.0767L19.8691 18.0981Z" fill="#1E3A8A" fill-opacity="0.45"/>
<path d="M29.0261 14.5049L25.7541 15.7907L22.4277 19.1013L23.8524 19.6601L29.0261 14.5049Z" fill="#1E3A8A" fill-opacity="0.45"/>
<path d="M39.706 15.7419V13.7651L30.9766 22.4532L32.4013 23.012L39.706 15.7419Z" fill="#1E3A8A" fill-opacity="0.45"/>
<path d="M39.7061 19.6955V17.7188L33.8262 23.5709L35.2509 24.1297L39.7061 19.6955Z" fill="#1E3A8A" fill-opacity="0.45"/>
<path d="M39.7059 25.6255L39.5254 25.8051L39.7059 25.871V25.6255Z" fill="#1E3A8A" fill-opacity="0.45"/>
<path d="M39.7063 23.6491V21.6724L36.6758 24.6886L38.1005 25.2473L39.7063 23.6491Z" fill="#1E3A8A" fill-opacity="0.45"/>
<path d="M62.8022 0.541016L59.3913 1.95899L51.4648 9.84798V11.8247L62.8022 0.541016Z" fill="#1E3A8A" fill-opacity="0.45"/>
<path d="M65.3317 5.93037V3.95361L51.4648 17.7548V19.7316L65.3317 5.93037Z" fill="#1E3A8A" fill-opacity="0.45"/>
<path d="M65.3317 9.88349V7.90674L51.4648 21.708V23.6847L65.3317 9.88349Z" fill="#1E3A8A" fill-opacity="0.45"/>
<path d="M65.3317 15.8145L51.4648 29.6157V30.0663L52.5575 30.5049L65.3317 17.7912V15.8145Z" fill="#1E3A8A" fill-opacity="0.45"/>
<path d="M55.9805 3.37646L52.5696 4.79444L51.4648 5.89397V7.87073L55.9805 3.37646Z" fill="#1E3A8A" fill-opacity="0.45"/>
<path d="M65.3317 1.97675V0L51.4648 13.8012V15.778L65.3317 1.97675Z" fill="#1E3A8A" fill-opacity="0.45"/>
<path d="M65.3338 29.6511V27.6743L59.6289 33.3582L61.0415 33.923L65.3338 29.6511Z" fill="#1E3A8A" fill-opacity="0.45"/>
<path d="M65.3317 13.8376V11.8608L51.4648 25.6621V27.6388L65.3317 13.8376Z" fill="#1E3A8A" fill-opacity="0.45"/>
<path d="M65.3334 35.5825L65.2793 35.6364L65.3334 35.6604V35.5825Z" fill="#1E3A8A" fill-opacity="0.45"/>
<path d="M65.3327 33.6052V31.6284L62.4531 34.4944L63.8658 35.0652L65.3327 33.6052Z" fill="#1E3A8A" fill-opacity="0.45"/>
<path d="M65.3331 25.6984V23.7217L56.7969 32.2175L58.2095 32.7883L65.3331 25.6984Z" fill="#1E3A8A" fill-opacity="0.45"/>
<path d="M65.3322 21.7443V19.7676L53.9707 31.0753L55.3833 31.6461L65.3322 21.7443Z" fill="#1E3A8A" fill-opacity="0.45"/>
<path d="M77.4304 3.1663H72.6914V0.0239258H85.5923V3.1663H80.8533V15.5135H77.4304V3.1663Z" fill="#1E3A8A" fill-opacity="0.45"/>
<path d="M88.2129 0.0239258H91.6358V6.15246H97.9565V0.0239258H101.379V15.5135H97.9565V9.29484H91.6358V15.5135H88.2129V0.0239258Z" fill="#1E3A8A" fill-opacity="0.45"/>
<path d="M105.109 0.0239258H116.851V3.05214H108.514V6.19452H115.855V9.22875H108.514V12.4793H116.966V15.5135H105.109V0.0239258Z" fill="#1E3A8A" fill-opacity="0.45"/>
<path d="M83.0937 22.3823H88.1165L98.7415 47.2329H93.0426L90.7727 41.6992H80.2927L78.0288 47.2329H72.4688L83.0937 22.3823ZM88.8288 36.9045L85.5327 28.9074L82.2426 36.9045H88.8288Z" fill="#1E3A8A" fill-opacity="0.45"/>
<path d="M102.562 22.5439H113.894C117.045 22.5439 119.49 23.4212 121.138 25.0434C121.853 25.795 122.409 26.6815 122.774 27.6504C123.139 28.6194 123.305 29.6513 123.263 30.6853V30.7514C123.263 34.7349 121.102 37.2404 117.951 38.4L123.988 47.2143H117.613L112.3 39.3193H108.02V47.2143H102.587L102.562 22.5439ZM113.544 34.5607C116.2 34.5607 117.721 33.1487 117.721 31.0698V31.0037C117.721 28.6725 116.091 27.4768 113.435 27.4768H108.002V34.5607H113.544Z" fill="#1E3A8A" fill-opacity="0.45"/>
<path d="M127.043 34.9636V34.8975C127.043 27.8797 132.356 22.1357 139.968 22.1357C144.641 22.1357 147.442 23.6859 149.742 25.945L146.271 29.9286C144.357 28.1982 142.413 27.1407 139.932 27.1407C135.755 27.1407 132.742 30.5955 132.742 34.8254V34.8975C132.742 39.1034 135.682 42.6483 139.932 42.6483C142.763 42.6483 144.502 41.5187 146.446 39.7583L149.917 43.2491C147.37 45.9649 144.538 47.6533 139.757 47.6533C138.077 47.6802 136.408 47.3701 134.851 46.7415C133.294 46.1128 131.88 45.1785 130.694 43.9943C129.507 42.81 128.573 41.4001 127.945 39.8486C127.318 38.297 127.011 36.6357 127.043 34.9636" fill="#1E3A8A" fill-opacity="0.45"/>
<path d="M162.793 22.3823H167.822L178.447 47.2329H172.742L170.478 41.6992H159.998L157.728 47.2329H152.168L162.793 22.3823ZM168.528 36.9045L165.238 28.9074L161.942 36.9045H168.528Z" fill="#1E3A8A" fill-opacity="0.45"/>
<path d="M182.268 22.5439H191.927C199.72 22.5439 205.099 27.8614 205.099 34.807V34.8791C205.099 41.8188 199.72 47.2143 191.927 47.2143H182.268V22.5439ZM191.927 42.3115C196.388 42.3115 199.4 39.3073 199.4 34.9452V34.8791C199.4 30.505 196.382 27.4408 191.927 27.4408H187.701V42.3115H191.927Z" fill="#1E3A8A" fill-opacity="0.45"/>
<path d="M215.658 22.5625H210.207V47.2329H215.658V22.5625Z" fill="#1E3A8A" fill-opacity="0.45"/>
<path d="M230.352 22.3823H235.38L245.999 47.2329H240.3L238.037 41.6992H227.55L225.287 47.2329H219.727L230.352 22.3823ZM236.087 36.9045L232.797 28.9074L229.5 36.9045H236.087Z" fill="#1E3A8A" fill-opacity="0.45"/>
<path d="M73.1136 61.658V61.5979C73.1053 60.5342 73.3115 59.4795 73.7202 58.4966C74.1289 57.5136 74.7316 56.6223 75.4928 55.8754C76.2539 55.1286 77.1579 54.5413 78.1512 54.1485C79.1445 53.7558 80.2069 53.5654 81.2755 53.5888C83.5128 53.4698 85.7074 54.2316 87.385 55.7097L85.2297 58.2993C84.1344 57.2629 82.6719 56.6992 81.1608 56.7311C78.6736 56.7311 76.6935 58.9182 76.6935 61.5378V61.5979C76.6935 64.4339 78.6495 66.5128 81.4084 66.5128C82.5544 66.5459 83.682 66.2202 84.6321 65.5815V63.4004H81.1608V60.4563H87.9222V67.1857C86.0774 68.7727 83.7199 69.6451 81.2816 69.6431C76.452 69.6431 73.1016 66.2544 73.1016 61.67" fill="#1E3A8A" fill-opacity="0.45"/>
<path d="M91.2363 53.8711H98.3478C100.328 53.8711 101.861 54.4239 102.888 55.4393C103.336 55.9123 103.684 56.4694 103.913 57.0781C104.142 57.6867 104.247 58.3347 104.222 58.9842V59.0263C104.273 60.0812 103.974 61.1236 103.371 61.9925C102.767 62.8613 101.893 63.5081 100.883 63.833L104.687 69.3667H100.684L97.3517 64.4098H94.6593V69.3667H91.2363V53.8711ZM98.1305 61.3936C99.7967 61.3936 100.751 60.5103 100.751 59.2065V59.1585C100.751 57.6984 99.7303 56.9474 98.0641 56.9474H94.6593V61.3936H98.1305Z" fill="#1E3A8A" fill-opacity="0.45"/>
<path d="M106.619 61.6585V61.5984C106.619 60.5253 106.836 59.4631 107.257 58.475C107.677 57.4868 108.293 56.5928 109.067 55.8458C109.841 55.0989 110.758 54.5142 111.763 54.1266C112.769 53.739 113.842 53.5563 114.92 53.5892C119.719 53.5892 123.166 57.1522 123.166 61.5563V61.5984C123.167 62.6715 122.951 63.7338 122.531 64.7222C122.111 65.7107 121.496 66.6052 120.723 67.3527C119.949 68.1002 119.033 68.6855 118.028 69.0738C117.023 69.4622 115.949 69.6457 114.872 69.6136C110.042 69.6136 106.619 66.0446 106.619 61.6405V61.6585ZM119.586 61.6405V61.5984C119.608 60.9681 119.503 60.3398 119.276 59.751C119.049 59.1621 118.705 58.6247 118.265 58.1707C117.825 57.7167 117.298 57.3553 116.715 57.1081C116.132 56.8609 115.505 56.7328 114.872 56.7316C114.244 56.7295 113.623 56.8537 113.045 57.0966C112.467 57.3395 111.945 57.6961 111.509 58.1451C111.073 58.5941 110.733 59.1261 110.509 59.7092C110.285 60.2923 110.181 60.9144 110.205 61.5383V61.5984C110.183 62.2287 110.289 62.857 110.516 63.4458C110.743 64.0346 111.087 64.572 111.526 65.0261C111.966 65.4801 112.493 65.8415 113.076 66.0887C113.659 66.3359 114.286 66.4639 114.92 66.4652C115.547 66.4672 116.168 66.3431 116.746 66.1002C117.324 65.8573 117.847 65.5006 118.282 65.0517C118.718 64.6027 119.059 64.0707 119.283 63.4876C119.507 62.9045 119.61 62.2823 119.586 61.6585" fill="#1E3A8A" fill-opacity="0.45"/>
<path d="M125.967 62.7214V53.8711H129.39V62.6373C129.39 65.1548 130.657 66.4646 132.746 66.4646C134.835 66.4646 136.109 65.2029 136.109 62.7455V53.8711H139.532V62.6133C139.532 67.3058 136.888 69.607 132.704 69.607C128.52 69.607 125.967 67.2818 125.967 62.7214Z" fill="#1E3A8A" fill-opacity="0.45"/>
<path d="M143.022 53.8711H149.379C153.091 53.8711 155.337 56.0641 155.337 59.2245V59.2726C155.337 62.8776 152.536 64.7162 149.04 64.7162H146.439V69.3607H143.016L143.022 53.8711ZM149.161 61.682C150.87 61.682 151.872 60.6665 151.872 59.3387V59.2906C151.872 57.7645 150.803 56.9474 149.095 56.9474H146.445V61.682H149.161Z" fill="#1E3A8A" fill-opacity="0.45"/>
</svg>
