<svg viewBox="0 0 212 58" fill="none" xmlns="http://www.w3.org/2000/svg">
<path d="M13.9511 45.7039C22.3921 45.7039 29.3676 41.542 29.3676 32.9252C29.3676 25.129 24.4437 22.0808 16.5889 19.443C10.434 17.3328 8.08927 15.7501 8.08927 11.7641C8.08927 8.24701 10.6098 5.96091 14.4786 5.96091C20.0473 5.96091 23.2713 9.59523 24.5023 15.6915H26.9642V6.84018C24.0334 4.72994 19.637 3.38173 14.4786 3.38173C6.09626 3.38173 0.29309 8.42287 0.29309 16.0432C0.29309 23.0774 4.63082 26.5358 11.9581 28.8805C18.7577 31.1666 21.2783 32.9252 21.2783 36.9698C21.2783 40.8386 18.406 43.1247 13.9511 43.1247C7.97204 43.1247 4.16187 38.4939 2.75504 31.6942H0L0.527561 41.8351C3.22399 44.004 8.20651 45.7039 13.9511 45.7039Z" fill="#1E3A8A" fill-opacity="0.45"/>
<path d="M48.0836 13.2295C39.8185 13.2295 33.0188 19.9706 33.0188 30.2287C33.0188 39.6662 39.1151 45.7039 47.6733 45.7039C54.7661 45.7039 59.1624 41.6006 60.6865 35.4457L59.69 34.8596C57.5211 37.8491 54.8247 39.3731 50.8973 39.3731C45.3872 39.3731 41.3426 34.8009 41.5184 27.122H60.452V25.7738C60.452 18.5052 56.2315 13.2295 48.0836 13.2295ZM47.4388 15.5156C50.8973 15.5156 52.1869 19.1499 52.1869 24.7187H41.6357C41.9874 19.3258 43.8632 15.5156 47.4388 15.5156Z" fill="#1E3A8A" fill-opacity="0.45"/>
<path d="M79.9443 15.7501C82.8752 15.7501 84.751 18.1534 84.751 22.4326V38.8456C83.5786 39.7248 82.1718 40.1938 80.5305 40.1938C75.6066 40.1938 72.8516 34.6837 72.8516 27.4737C72.8516 20.4982 75.3721 15.7501 79.9443 15.7501ZM84.751 52.7966C84.751 54.9655 83.6373 55.1414 80.0616 55.4345V57.5447H97.6469V55.4345C95.1264 55.2586 94.1885 54.9655 94.1885 53.0311V20.1465L94.4816 13.3468H92.6058L88.6784 16.8052C86.3923 14.5777 83.2269 13.2295 79.0064 13.2295C70.2138 13.2295 63.4727 19.6775 63.4727 30.9322C63.4727 40.1352 68.2794 45.7039 75.2549 45.7039C79.7099 45.7039 82.6994 43.2419 84.751 40.1938V52.7966Z" fill="#1E3A8A" fill-opacity="0.45"/>
<path d="M129.797 20.3809L130.149 13.2882H128.507L117.018 15.6915V17.6845L117.898 17.8604C120.008 18.3293 120.418 19.3844 120.418 21.2016V38.4939C118.66 39.4318 117.194 40.1938 115.143 40.1938C112.094 40.1938 110.863 38.2594 110.863 34.9768V20.4982L111.157 13.2882H109.574L98.0261 15.6915V17.6845L98.9054 17.8604C101.016 18.3293 101.426 19.3844 101.426 21.2016V36.0319C101.426 42.7144 104.884 45.7039 110.101 45.7039C115.025 45.7039 118.132 42.773 120.418 40.0766L120.242 45.7039H121.942L133.431 43.6522V41.6006L132.025 41.542C129.973 41.4248 129.797 40.6627 129.797 38.6697V20.3809Z" fill="#1E3A8A" fill-opacity="0.45"/>
<path d="M151.43 43.4178C147.151 43.4178 145.451 36.9698 145.451 27.8254C145.451 20.2637 147.033 15.5156 150.961 15.5156C155.24 15.5156 156.94 21.9636 156.94 31.108C156.94 38.6697 155.357 43.4178 151.43 43.4178ZM151.137 45.7039C160.281 45.7039 166.964 38.7283 166.964 28.8219C166.964 19.3844 160.574 13.2295 151.254 13.2295C142.11 13.2295 135.486 20.2051 135.486 30.1115C135.486 39.549 141.816 45.7039 151.137 45.7039Z" fill="#1E3A8A" fill-opacity="0.45"/>
<path d="M182.385 13.2295H180.802L169.547 16.5121V17.8604L172.947 19.912V40.6041C172.947 42.5385 172.009 42.8316 169.489 43.0075V45.1177H185.843V43.0075C183.323 42.8316 182.385 42.5385 182.385 40.6041V13.2295ZM177.637 10.1228C180.802 10.1228 182.912 7.83669 182.912 5.14026C182.912 2.44384 180.802 0.0991211 177.637 0.0991211C174.471 0.0991211 172.42 2.44384 172.42 5.14026C172.42 7.83669 174.471 10.1228 177.637 10.1228Z" fill="#1E3A8A" fill-opacity="0.45"/>
<path d="M200.932 24.0739C203.745 21.5533 206.794 21.3774 210.486 21.3774H211.717V14.226C211.19 13.6399 210.252 13.2295 208.962 13.2295C205.387 13.2295 203.511 15.457 200.932 22.0808L201.166 13.2295H199.408L188.094 16.5121V17.8604L191.494 19.912V40.6041C191.494 42.5385 190.556 42.8316 188.036 43.0075V45.1177H205.738V43.0075C202.221 42.6557 200.932 42.3627 200.932 39.9007V24.0739Z" fill="#1E3A8A" fill-opacity="0.45"/>
</svg>
