<svg width="61" height="61" viewBox="0 0 61 61" fill="none" xmlns="http://www.w3.org/2000/svg">
<g clip-path="url(#clip0_1264_6557)">
<path d="M30.5 22.875V27.9583M30.5 38.125V38.1504" stroke="#248AFD" stroke-width="3" stroke-linecap="round" stroke-linejoin="round"/>
<path d="M12.7086 48.2917H48.2919C49.1213 48.2859 49.9367 48.0772 50.6669 47.6839C51.3971 47.2906 52.0199 46.7246 52.4811 46.0353C52.9424 45.346 53.2279 44.5543 53.3129 43.7293C53.3978 42.9042 53.2797 42.071 52.9686 41.3021L34.9228 10.1667C34.4832 9.37216 33.8388 8.70988 33.0566 8.24871C32.2744 7.78754 31.3829 7.54431 30.4749 7.54431C29.5668 7.54431 28.6754 7.78754 27.8932 8.24871C27.1109 8.70988 26.4665 9.37216 26.0269 10.1667L7.98111 41.3021C7.67596 42.0534 7.55496 42.8667 7.6282 43.6743C7.70145 44.4818 7.96681 45.2601 8.40214 45.9442C8.83748 46.6283 9.43014 47.1983 10.1307 47.6067C10.8312 48.0151 11.6192 48.2499 12.429 48.2917" stroke="#1E3A8A" stroke-width="3" stroke-linecap="round" stroke-linejoin="round"/>
</g>
<defs>
<clipPath id="clip0_1264_6557">
<rect width="61" height="61" fill="white"/>
</clipPath>
</defs>
</svg>
