<svg width="26" height="20" viewBox="0 0 26 20" fill="none" xmlns="http://www.w3.org/2000/svg">
<path d="M0 3.5C0 2.63805 0.34241 1.8114 0.951903 1.2019C1.5614 0.59241 2.38805 0.25 3.25 0.25H22.75C23.612 0.25 24.4386 0.59241 25.0481 1.2019C25.6576 1.8114 26 2.63805 26 3.5V16.5C26 17.362 25.6576 18.1886 25.0481 18.7981C24.4386 19.4076 23.612 19.75 22.75 19.75H3.25C2.38805 19.75 1.5614 19.4076 0.951903 18.7981C0.34241 18.1886 0 17.362 0 16.5V3.5ZM3.25 1.875C2.81902 1.875 2.4057 2.0462 2.10095 2.35095C1.7962 2.6557 1.625 3.06902 1.625 3.5V5.125H24.375V3.5C24.375 3.06902 24.2038 2.6557 23.899 2.35095C23.5943 2.0462 23.181 1.875 22.75 1.875H3.25ZM24.375 8.375H1.625V16.5C1.625 16.931 1.7962 17.3443 2.10095 17.649C2.4057 17.9538 2.81902 18.125 3.25 18.125H22.75C23.181 18.125 23.5943 17.9538 23.899 17.649C24.2038 17.3443 24.375 16.931 24.375 16.5V8.375Z" fill="black" fill-opacity="0.3"/>
</svg>
