<svg viewBox="0 0 18 19" fill="none" xmlns="http://www.w3.org/2000/svg">
<path d="M4.1373 18.6121H0.486496V6.7531H4.1373V18.6121ZM2.3097 5.13545C1.14245 5.13545 0.195312 4.15978 0.195312 2.98238C0.195312 2.41673 0.418077 1.87425 0.814601 1.47428C1.21112 1.07431 1.74893 0.849609 2.3097 0.849609C2.87046 0.849609 3.40827 1.07431 3.80479 1.47428C4.20131 1.87425 4.42408 2.41673 4.42408 2.98238C4.42408 4.15978 3.47694 5.13545 2.3097 5.13545ZM17.8009 18.6121H14.1583V12.8393C14.1583 11.4633 14.1306 9.69914 12.2602 9.69914C10.3622 9.69914 10.071 11.1937 10.071 12.7403V18.6121H6.424V6.7531H9.92512V8.37076H9.97606C10.4635 7.43886 11.654 6.45558 13.43 6.45558C17.1248 6.45558 17.8041 8.90998 17.8041 12.0977V18.6121H17.8009Z" fill="#1E3A8A"/>
</svg>
