<svg viewBox="0 0 21 17" fill="none" xmlns="http://www.w3.org/2000/svg">
<path fill-rule="evenodd" clip-rule="evenodd" d="M20.593 0.102051L19.102 16.1444L12.5043 13.2666L10.2694 16.6481L10.2508 16.6358C10.1634 16.7392 9.95102 16.9426 9.60316 16.952C9.21533 16.9626 8.98111 16.7259 8.89616 16.6201C8.80457 16.506 8.75624 16.3903 8.73191 16.3249C8.67983 16.1848 8.65027 16.0299 8.63084 15.8927C8.63084 15.8927 8.63084 15.8927 8.63084 15.8927L7.97926 11.2928L0.712891 8.12323L20.593 0.102051ZM11.8048 11.1431L14.8333 7.40938L13.709 6.2012L8.62094 9.75435L5.01879 8.18312L18.6804 2.67096L17.6557 13.6953L11.8048 11.1431Z" fill="#1E3A8A"/>
</svg>
