<svg viewBox="0 0 20 16" fill="none" xmlns="http://www.w3.org/2000/svg">
<path d="M19.5126 2.0258C18.8124 2.33875 18.0602 2.55021 17.2695 2.64579C18.0854 2.15334 18.6958 1.37828 18.9868 0.465233C18.2203 0.924512 17.3813 1.24779 16.5064 1.42103C15.9181 0.787382 15.1388 0.367392 14.2896 0.226263C13.4404 0.0851342 12.5687 0.230761 11.8099 0.640535C11.0512 1.05031 10.4478 1.7013 10.0934 2.49245C9.73899 3.28359 9.65346 4.17062 9.85007 5.01582C8.29682 4.93715 6.77734 4.52993 5.39022 3.82057C4.0031 3.11122 2.77935 2.11559 1.79839 0.8983C1.46297 1.48192 1.27011 2.15859 1.27011 2.87924C1.26974 3.52799 1.42812 4.1668 1.73121 4.739C2.03429 5.3112 2.47271 5.79909 3.00757 6.15938C2.38728 6.13947 1.78067 5.97041 1.23824 5.66626V5.71701C1.23818 6.62691 1.55021 7.50881 2.12138 8.21306C2.69256 8.91732 3.48769 9.40056 4.37187 9.58078C3.79645 9.73786 3.19317 9.761 2.60758 9.64845C2.85705 10.4314 3.34298 11.116 3.99735 11.6065C4.65173 12.097 5.44178 12.3688 6.25692 12.3839C4.87318 13.4796 3.16428 14.0739 1.40511 14.0713C1.0935 14.0714 0.782142 14.053 0.472656 14.0163C2.25831 15.1744 4.33694 15.789 6.45984 15.7867C13.6461 15.7867 17.5747 9.78293 17.5747 4.57598C17.5747 4.40682 17.5705 4.23596 17.563 4.06679C18.3271 3.50937 18.9867 2.8191 19.5109 2.02833L19.5126 2.0258V2.0258Z" fill="#1E3A8A"/>
</svg>
